<?xml version="1.0" encoding="UTF-8" standalone="no" ?>
<!DOCTYPE svg PUBLIC "-//W3C//DTD SVG 1.1//EN" "http://www.w3.org/Graphics/SVG/1.1/DTD/svg11.dtd">
<svg xmlns="http://www.w3.org/2000/svg" xmlns:xlink="http://www.w3.org/1999/xlink" version="1.1" width="1280" height="1024" viewBox="0 0 1280 1024" xml:space="preserve">
<desc>Created with Fabric.js 5.3.0</desc>
<defs>
</defs>
<g transform="matrix(1 0 0 1 640 512)" id="background-logo"  >
<rect style="stroke: none; stroke-width: 0; stroke-dasharray: none; stroke-linecap: butt; stroke-dashoffset: 0; stroke-linejoin: miter; stroke-miterlimit: 4; fill: rgb(255,255,255); fill-rule: nonzero; opacity: 1;"  paint-order="stroke"  x="-640" y="-512" rx="0" ry="0" width="1280" height="1024" />
</g>
<g transform="matrix(1.4490152737605604 0 0 1.4490152737605602 217.29812500000003 512.1685222672065)" id="logo-logo"  >
<g style=""  paint-order="stroke"   >
		<g transform="matrix(0.8482679783106362 0 0 0.8482679783106362 0 0)"  >
<path style="stroke: none; stroke-width: 1; stroke-dasharray: none; stroke-linecap: butt; stroke-dashoffset: 0; stroke-linejoin: miter; stroke-miterlimit: 4; fill: rgb(127,216,88); fill-rule: nonzero; opacity: 1;"  paint-order="stroke"  transform=" translate(-320.00024414999996, -319.9998185515665)" d="M 259.6818848 273.0825195 C 259.6818848 278.97509759999997 254.90649419999997 283.7504883 249.01586919999997 283.7504883 C 243.12426759999997 283.7504883 238.34887699999996 278.9750977 238.34887699999996 273.0825195 C 238.34887699999996 267.1918945 243.12426759999997 262.4169922 249.01586919999997 262.4169922 C 254.9064941 262.4169922 259.6818848 267.1918945 259.6818848 273.0825195 z M 194.0148926 303.7543945 C 188.123291 303.7543945 183.3479004 308.52978509999997 183.3479004 314.42041009999997 C 183.3479004 320.31201169999997 188.123291 325.086914 194.0148926 325.086914 C 199.9055176 325.086914 204.6809082 320.31201169999997 204.6809082 314.42041009999997 C 204.6809082 308.5297852 199.9055176 303.7543945 194.0148926 303.7543945 z M 283.5432129 262.4169922 C 292.3029785 262.4169922 299.404541 255.31542969999998 299.404541 246.55615239999997 C 299.404541 237.79638679999996 292.3029785 230.69531259999997 283.5432129 230.69531259999997 C 274.78344730000003 230.69531259999997 267.68188480000003 237.79638679999996 267.68188480000003 246.55615239999997 C 267.6818848 255.3154297 274.7834473 262.4169922 283.5432129 262.4169922 z M 257.3068848 314.4208984 C 257.3068848 301.7875976 247.06469729999998 291.5458984 234.43188479999998 291.5458984 C 221.79907229999998 291.5458984 211.55688479999998 301.7875976 211.55688479999998 314.4208984 C 211.55688479999998 327.0537109 221.79907229999998 337.2958984 234.43188479999998 337.2958984 C 247.06469729999998 337.2958984 257.3068848 327.0537109 257.3068848 314.4208984 z M 340.3908691 242.9985352 C 349.15161129999996 242.9985352 356.25317379999996 235.8969727 356.25317379999996 227.13769539999998 C 356.25317379999996 218.37792979999998 349.15161129999996 211.27685559999998 340.3908691 211.27685559999998 C 331.6311035 211.27685559999998 324.529541 218.37792979999998 324.529541 227.13769539999998 C 324.529541 235.8969727 331.6311035 242.9985352 340.3908691 242.9985352 z M 249.0158691 354.0839844 C 243.1242675 354.0839844 238.3488769 358.859375 238.3488769 364.75 C 238.3488769 370.6416016 243.1242675 375.4169922 249.0158691 375.4169922 C 254.9064941 375.4169922 259.6818847 370.6416016 259.6818847 364.75 C 259.6818848 358.859375 254.9064941 354.0839844 249.0158691 354.0839844 z M 281.0148926 373.5566406 C 272.255127 373.5566406 265.1535645 380.6572265 265.1535645 389.4169922 C 265.1535645 398.1757813 272.255127 405.2773438 281.0148926 405.2773438 C 289.7746582 405.2773438 296.8762207 398.1757813 296.8762207 389.4169922 C 296.8762207 380.6572266 289.7746582 373.5566406 281.0148926 373.5566406 z M 456.6525879 314.434082 C 456.6525879 329.0234375 450.00219730000003 342.5185547 438.732666 353.5546875 C 438.7922363 367.3984375 426.7883301 378.7949219 406.1291504 383.1611328 C 406.1291504 383.1611328 395.1682129 385.140625 376.7473145 385.0380859 C 371.2541504 397.5820312 359.2961426 417.9560547 336.9982911 427.1386718 C 308.8498536 438.7285156 343.286377 383.1191405 324.72290050000004 377.2031249 C 318.8342286 375.5830077 313.23657240000006 373.5634765 307.97973640000004 371.20507799999996 C 316.07446300000004 370.48730459999996 322.42504890000004 363.69726549999996 322.42504890000004 355.41601549999996 C 322.42504890000004 346.6562499 315.32348640000004 339.55566389999996 306.56372080000006 339.55566389999996 C 297.8039552000001 339.55566389999996 290.7023927000001 346.65624979999996 290.7023927000001 355.41601549999996 C 290.7023927000001 357.97167959999996 291.32153330000006 360.37792959999996 292.3957521000001 362.5156249 C 287.9484865000001 359.461914 283.9406740000001 356.1005858 280.4045412000001 352.4960936 C 282.3430178000001 350.5654295 283.5432131000001 347.8935545 283.5432131000001 344.9404295 C 283.5432131000001 339.0498045 278.76782250000014 334.2744139 272.87719750000014 334.2744139 C 271.22778340000013 334.2744139 269.67114280000015 334.6601561 268.27661160000014 335.3291014 C 266.14868190000016 330.76367170000003 264.69067410000014 325.986328 264.00122100000016 321.0507811 C 265.95532260000016 323.5078124 268.96508820000014 325.0869139 272.34887730000014 325.0869139 C 278.23950230000014 325.0869139 283.0148929000001 320.3120116 283.0148929000001 314.42041 C 283.0148929000001 308.529785 278.23950230000014 303.7543944 272.34887730000014 303.7543944 C 268.95727570000014 303.7543944 265.94262730000014 305.34179670000003 263.98852570000014 307.8081053 C 264.54223660000014 303.83740220000004 265.60376010000016 299.97167950000005 267.0998538000001 296.23291 C 268.7658694000001 297.3090819 270.74633820000014 297.9409178 272.87817410000014 297.9409178 C 278.76879910000014 297.9409178 283.5441897000001 293.16552720000004 283.5441897000001 287.27392560000004 C 283.5441897000001 283.48291000000006 281.5607913000001 280.16259750000006 278.58032250000014 278.27099590000006 C 281.57055690000016 274.98876930000006 284.9416506000001 271.8920896000001 288.67504910000014 269.02783180000006 C 287.73559600000016 271.05419900000004 287.19555690000016 273.30419900000004 287.19555690000016 275.68505840000006 C 287.19555690000016 284.44482400000004 294.29711940000016 291.54638650000004 303.05688500000014 291.54638650000004 C 311.8166506000001 291.54638650000004 318.9182131000001 284.44482400000004 318.9182131000001 275.68505840000006 C 318.9182131000001 267.03027320000007 311.9826662000001 260.00683570000007 303.36743180000013 259.83984360000005 C 311.91430680000013 255.49902330000006 321.51684590000013 252.11328110000005 331.85864270000013 249.90771470000004 C 329.67797860000013 252.62451160000003 328.36547860000013 256.06933580000003 328.36547860000013 259.82421860000005 C 328.36547860000013 268.58349590000006 335.46801770000013 275.68505840000006 344.2277833000001 275.68505840000006 C 352.9875489000001 275.68505840000006 360.0891114000001 268.58349590000006 360.0891114000001 259.82421860000005 C 360.0891114000001 254.62158190000005 357.5725098000001 250.01855450000005 353.7033692000001 247.12646470000004 C 355.8146973000001 247.03027330000003 357.94262700000013 246.97607410000003 360.0881348000001 246.97607410000003 C 413.420166 246.9760742 456.6525879 277.1782227 456.6525879 314.434082 z M 354.1262207 314.4213867 C 354.1262207 301.7875976 343.8840332 291.5463867 331.2512207 291.5463867 C 318.6184082 291.5463867 308.3762207 301.7875976 308.3762207 314.4213867 C 308.3762207 327.05371090000006 318.6184082 337.29589840000006 331.2512207 337.29589840000006 C 343.8840332 337.29589840000006 354.1262207 327.0537109 354.1262207 314.4213867 z M 224.6828613 357.0839844 C 220.4475097 357.0839844 217.0158691 360.5166016 217.0158691 364.75 C 217.0158691 368.984375 220.4475097 372.4169922 224.6828613 372.4169922 C 228.9162597 372.4169922 232.34887690000002 368.984375 232.34887690000002 364.75 C 232.348877 360.5166016 228.9162598 357.0839844 224.6828613 357.0839844 z M 224.6828613 280.7504883 C 228.9162597 280.7504883 232.34887690000002 277.3178711 232.34887690000002 273.0834961 C 232.34887690000002 268.8500977 228.9162597 265.4174805 224.6828613 265.4174805 C 220.4475097 265.4174805 217.0158691 268.8500977 217.0158691 273.0834961 C 217.0158691 277.3178711 220.4475098 280.7504883 224.6828613 280.7504883 z" stroke-linecap="round" />
</g>
</g>
</g>
<g transform="matrix(1.9211538461538462 0 0 1.9211538461538462 837.9268821234191 462.0163955959114)" id="text-logo"  >
<g style=""  paint-order="stroke"   >
		<g transform="matrix(1 0 0 1 0 0)" id="text-logo-path-0"  >
<path style="stroke: none; stroke-width: 0; stroke-dasharray: none; stroke-linecap: butt; stroke-dashoffset: 0; stroke-linejoin: miter; stroke-miterlimit: 4; fill: rgb(0,0,0); fill-rule: nonzero; opacity: 1;"  paint-order="stroke"  transform=" translate(-205.78, 28.349999999999998)" d="M 26.57 0.81 C 41.72 0.81 49.09 -6.16 49.09 -21.71 L 49.09 -56.7 L 35.32 -56.7 L 35.32 -21.71 C 35.32 -14.18 32.64 -10.53 26.57 -10.53 C 20.66 -10.53 17.82 -13.93 17.82 -21.71 L 4.05 -21.71 C 4.05 -6.56 11.02 0.81 26.57 0.81 Z M 73.39 0 L 87.16 0 L 87.16 -56.7 L 73.39 -56.7 Z M 148.72 0 L 165.73 0 L 165.73 -56.7 L 151.96 -56.7 L 151.96 -17.58 L 128.47 -56.7 L 111.46 -56.7 L 111.46 0 L 125.23 0 L 125.23 -39.12 Z M 219.27 0.81 C 237.33 0.81 246.56 -5.67 246.97 -18.55 L 246.97 -29.89 L 220.97 -29.89 L 220.97 -18.55 L 233.12 -18.55 C 232.55 -13.28 226.4 -10.53 219.27 -10.53 C 208.82 -10.53 203.8 -15.88 203.8 -28.43 C 203.8 -40.5 208.49 -46.17 219.27 -46.17 C 227.12 -46.17 233.28 -43.74 233.28 -37.26 L 247.05 -37.26 C 246.08 -50.79 235.47 -57.51 219.27 -57.51 C 199.5 -57.51 190.03 -48.6 190.03 -28.43 C 190.03 -8.67 198.94 0.81 219.27 0.81 Z M 293.22 -21.87 L 293.22 0 L 306.99 0 L 306.99 -21.87 L 328.86 -56.7 L 314.28 -56.7 L 300.11 -34.1 L 285.93 -56.7 L 271.35 -56.7 Z M 380.38 0.81 C 398.52 0.81 407.51 -7.7 407.51 -26.41 L 407.43 -56.7 L 393.66 -56.7 L 393.66 -23.89 C 393.66 -14.9 389.45 -10.53 380.38 -10.53 C 371.38 -10.53 367.01 -14.74 367.01 -23.89 L 366.93 -56.7 L 353.16 -56.7 L 353.16 -26.41 C 353.16 -8.26 361.67 0.81 380.38 0.81 Z" stroke-linecap="round" />
</g>
</g>
</g>
<g transform="matrix(1.9211538461538462 0 0 1.9211538461538462 633.41746846865 596.2519549788102)" id="tagline-dfcd302d-ce3b-4ba2-aa58-879ab28511e1-logo"  >
<g style=""  paint-order="stroke"   >
		<g transform="matrix(1 0 0 1 0 0)" id="tagline-dfcd302d-ce3b-4ba2-aa58-879ab28511e1-logo-path-0"  >
<path style="stroke: none; stroke-width: 0; stroke-dasharray: none; stroke-linecap: butt; stroke-dashoffset: 0; stroke-linejoin: miter; stroke-miterlimit: 4; fill: rgb(84,84,85); fill-rule: nonzero; opacity: 1;"  paint-order="stroke"  transform=" translate(-97.445, 14.96)" d="M 19.3 -15.99 L 17.28 -14 Q 16.85 -14.35 16.15 -14.9 Q 15.44 -15.44 14.61 -16.05 Q 13.77 -16.65 12.91 -17.26 Q 12.05 -17.86 11.31 -18.37 L 11.31 -18.37 Q 10.3 -16.69 8.46 -15.09 Q 6.63 -13.49 3.55 -12.09 L 3.55 -12.09 Q 3.28 -12.56 2.75 -13.16 Q 2.22 -13.77 1.72 -14.08 L 1.72 -14.08 Q 3.59 -14.82 4.91 -15.66 Q 6.24 -16.5 7.18 -17.37 Q 8.11 -18.25 8.68 -19.17 Q 9.24 -20.09 9.55 -20.98 L 9.55 -20.98 L 2.07 -20.98 L 2.07 -23.36 L 10.06 -23.36 Q 10.14 -23.75 10.14 -24.08 Q 10.14 -24.41 10.14 -24.77 L 10.14 -24.77 L 10.14 -27.03 L 6.86 -27.03 Q 5.73 -25 4.41 -23.56 L 4.41 -23.56 Q 3.98 -23.87 3.28 -24.3 Q 2.57 -24.73 2.07 -24.96 L 2.07 -24.96 Q 3.55 -26.4 4.68 -28.45 Q 5.81 -30.5 6.47 -32.72 L 6.47 -32.72 L 9.09 -32.21 Q 8.89 -31.47 8.62 -30.77 Q 8.35 -30.07 8.03 -29.37 L 8.03 -29.37 L 18.64 -29.37 L 18.64 -27.03 L 12.91 -27.03 L 12.91 -24.77 Q 12.91 -24.41 12.91 -24.08 Q 12.91 -23.75 12.83 -23.36 L 12.83 -23.36 L 19.62 -23.36 L 19.62 -20.98 L 12.4 -20.98 Q 12.36 -20.79 12.32 -20.65 Q 12.29 -20.51 12.21 -20.32 L 12.21 -20.32 Q 12.79 -20.01 13.81 -19.4 Q 14.82 -18.8 15.91 -18.14 Q 17 -17.47 17.96 -16.89 Q 18.91 -16.3 19.3 -15.99 L 19.3 -15.99 Z M 21.22 -29.48 L 34.83 -29.48 L 34.83 -15.95 L 21.22 -15.95 L 21.22 -29.48 Z M 31.98 -18.6 L 31.98 -26.87 L 23.95 -26.87 L 23.95 -18.6 L 31.98 -18.6 Z M 7.72 3 L 7.72 -12.99 L 31.51 -12.99 L 31.51 2.92 L 28.59 2.92 L 28.59 1.56 L 10.57 1.56 L 10.57 3 L 7.72 3 Z M 28.59 -10.61 L 10.57 -10.61 L 10.57 -6.94 L 28.59 -6.94 L 28.59 -10.61 Z M 10.57 -0.82 L 28.59 -0.82 L 28.59 -4.68 L 10.57 -4.68 L 10.57 -0.82 Z M 65.09 -29.33 L 67.47 -30.3 Q 68.21 -29.33 68.97 -28.22 Q 69.73 -27.11 70.41 -25.97 Q 71.1 -24.84 71.62 -23.79 Q 72.15 -22.74 72.46 -21.88 L 72.46 -21.88 L 69.93 -20.75 Q 69.58 -21.72 69.07 -22.82 L 69.07 -22.82 Q 65.09 -22.54 62.69 -22.35 Q 60.29 -22.15 58.97 -22 Q 57.64 -21.84 57.1 -21.74 Q 56.55 -21.64 56.24 -21.53 L 56.24 -21.53 Q 56.2 -21.76 56.08 -22.11 Q 55.97 -22.46 55.85 -22.85 Q 55.73 -23.24 55.58 -23.61 Q 55.42 -23.98 55.3 -24.26 L 55.3 -24.26 Q 56.04 -24.45 56.96 -25.58 Q 57.88 -26.71 58.73 -28.12 Q 59.59 -29.52 60.26 -30.83 Q 60.92 -32.14 61.15 -32.72 L 61.15 -32.72 L 64.12 -31.79 Q 63.1 -29.84 61.85 -27.94 Q 60.61 -26.05 59.36 -24.49 L 59.36 -24.49 L 67.9 -25 Q 67.24 -26.13 66.51 -27.24 Q 65.79 -28.35 65.09 -29.33 L 65.09 -29.33 Z M 85.68 -15.6 L 78.97 -15.6 Q 77.61 -15.6 76.71 -15.79 Q 75.82 -15.99 75.29 -16.46 Q 74.76 -16.93 74.57 -17.71 Q 74.37 -18.49 74.37 -19.66 L 74.37 -19.66 L 74.37 -32.53 L 77.18 -32.53 L 77.18 -26.01 Q 79.68 -26.83 82.11 -27.83 Q 84.55 -28.82 86.23 -29.68 L 86.23 -29.68 L 88.18 -27.57 Q 85.84 -26.48 82.91 -25.49 Q 79.99 -24.49 77.18 -23.63 L 77.18 -23.63 L 77.18 -19.7 Q 77.18 -18.8 77.55 -18.51 Q 77.92 -18.21 79.25 -18.21 L 79.25 -18.21 L 85.45 -18.21 Q 86 -18.21 86.35 -18.37 Q 86.7 -18.52 86.91 -19.01 Q 87.13 -19.5 87.22 -20.4 Q 87.32 -21.29 87.4 -22.74 L 87.4 -22.74 Q 87.83 -22.35 88.59 -22.05 Q 89.35 -21.76 89.97 -21.61 L 89.97 -21.61 Q 89.86 -19.85 89.6 -18.7 Q 89.35 -17.55 88.86 -16.85 Q 88.37 -16.15 87.61 -15.87 Q 86.85 -15.6 85.68 -15.6 L 85.68 -15.6 Z M 70.71 -18.84 L 70.71 -0.35 Q 70.71 0.78 70.43 1.4 Q 70.16 2.03 69.34 2.38 L 69.34 2.38 Q 68.56 2.73 67.29 2.81 Q 66.03 2.89 64.16 2.89 L 64.16 2.89 Q 64.04 2.3 63.78 1.54 Q 63.53 0.78 63.22 0.23 L 63.22 0.23 Q 64.58 0.31 65.7 0.29 Q 66.81 0.27 67.2 0.23 L 67.2 0.23 Q 67.63 0.23 67.74 0.12 Q 67.86 0 67.86 -0.39 L 67.86 -0.39 L 67.86 -4.95 L 59.63 -4.95 L 59.63 2.96 L 56.94 2.96 L 56.94 -18.84 L 70.71 -18.84 Z M 67.86 -16.38 L 59.63 -16.38 L 59.63 -13.06 L 67.86 -13.06 L 67.86 -16.38 Z M 79.37 0.08 L 85.64 0.08 Q 86.23 0.08 86.62 -0.12 Q 87.01 -0.31 87.22 -0.86 Q 87.44 -1.4 87.56 -2.4 Q 87.67 -3.39 87.75 -5.03 L 87.75 -5.03 Q 88.22 -4.72 88.96 -4.41 Q 89.7 -4.09 90.32 -3.98 L 90.32 -3.98 Q 90.21 -1.99 89.95 -0.72 Q 89.7 0.55 89.19 1.31 Q 88.69 2.07 87.89 2.36 Q 87.09 2.65 85.88 2.65 L 85.88 2.65 L 79.09 2.65 Q 77.69 2.65 76.77 2.46 Q 75.86 2.26 75.33 1.79 Q 74.8 1.33 74.59 0.55 Q 74.37 -0.23 74.37 -1.44 L 74.37 -1.44 L 74.37 -14.51 L 77.22 -14.51 L 77.22 -8.38 Q 78.55 -8.81 79.87 -9.3 Q 81.2 -9.79 82.45 -10.3 Q 83.69 -10.8 84.79 -11.35 Q 85.88 -11.89 86.7 -12.44 L 86.7 -12.44 L 88.61 -10.3 Q 87.52 -9.63 86.15 -9.03 Q 84.79 -8.42 83.28 -7.88 Q 81.78 -7.33 80.24 -6.86 Q 78.7 -6.4 77.22 -5.97 L 77.22 -5.97 L 77.22 -1.44 Q 77.22 -0.47 77.61 -0.2 Q 78 0.08 79.37 0.08 L 79.37 0.08 Z M 59.63 -7.21 L 67.86 -7.21 L 67.86 -10.76 L 59.63 -10.76 L 59.63 -7.21 Z M 111.77 -23.56 L 111.77 -18.49 L 109 -18.49 L 109 -26.17 L 115.44 -26.17 Q 114.89 -27.3 113.96 -28.65 Q 113.02 -29.99 112.09 -31.12 L 112.09 -31.12 L 114.5 -32.25 Q 115.6 -31 116.65 -29.54 Q 117.7 -28.08 118.21 -26.95 L 118.21 -26.95 L 116.73 -26.17 L 125.27 -26.17 Q 124.84 -27.42 124.04 -29.04 Q 123.24 -30.65 122.34 -31.98 L 122.34 -31.98 L 124.84 -32.92 Q 125.35 -32.21 125.83 -31.43 Q 126.32 -30.65 126.75 -29.87 Q 127.18 -29.09 127.51 -28.35 Q 127.84 -27.61 128 -26.99 L 128 -26.99 L 126.01 -26.17 L 132.37 -26.17 Q 132.91 -26.83 133.46 -27.63 Q 134 -28.43 134.53 -29.25 Q 135.06 -30.07 135.51 -30.87 Q 135.95 -31.67 136.31 -32.37 L 136.31 -32.37 L 139.23 -31.36 Q 138.33 -30.03 137.36 -28.68 Q 136.38 -27.34 135.45 -26.17 L 135.45 -26.17 L 141.8 -26.17 L 141.8 -18.49 L 138.96 -18.49 L 138.96 -23.56 L 111.77 -23.56 Z M 142.51 -10.72 L 142.51 -8.03 L 126.63 -8.03 L 126.63 -0.58 Q 126.63 0.74 126.22 1.42 Q 125.81 2.11 124.76 2.42 L 124.76 2.42 Q 123.71 2.77 121.99 2.85 Q 120.28 2.92 117.59 2.92 L 117.59 2.92 Q 117.43 2.3 117.06 1.52 Q 116.69 0.74 116.38 0.12 L 116.38 0.12 Q 117.51 0.16 118.52 0.18 Q 119.53 0.2 120.39 0.2 Q 121.25 0.2 121.86 0.2 Q 122.46 0.2 122.73 0.16 L 122.73 0.16 Q 123.36 0.12 123.55 -0.04 Q 123.75 -0.2 123.75 -0.62 L 123.75 -0.62 L 123.75 -8.03 L 108.22 -8.03 L 108.22 -10.72 L 123.75 -10.72 L 123.75 -13.53 Q 125.46 -14.16 127.24 -15.07 Q 129.01 -15.99 130.49 -17 L 130.49 -17 L 114.74 -17 L 114.74 -19.58 L 133.81 -19.58 L 134.35 -19.73 L 136.27 -18.29 Q 134.39 -16.54 131.84 -15 Q 129.28 -13.46 126.63 -12.29 L 126.63 -12.29 L 126.63 -10.72 L 142.51 -10.72 Z M 193.17 -29.8 L 193.17 -28.16 Q 193.05 -20.51 192.93 -15.31 Q 192.82 -10.1 192.6 -6.79 Q 192.39 -3.47 192.04 -1.74 Q 191.69 0 191.14 0.74 L 191.14 0.74 Q 190.48 1.72 189.73 2.11 Q 188.99 2.5 187.9 2.57 L 187.9 2.57 Q 186.77 2.69 185.05 2.65 Q 183.34 2.61 181.66 2.54 L 181.66 2.54 Q 181.66 1.91 181.41 1.13 Q 181.15 0.35 180.73 -0.23 L 180.73 -0.23 Q 182.79 -0.08 184.45 -0.06 Q 186.11 -0.04 186.89 -0.04 L 186.89 -0.04 Q 187.43 -0.04 187.78 -0.16 Q 188.14 -0.27 188.45 -0.66 L 188.45 -0.66 Q 188.92 -1.17 189.23 -2.83 Q 189.54 -4.49 189.73 -7.62 Q 189.93 -10.76 190.05 -15.52 Q 190.16 -20.28 190.24 -26.99 L 190.24 -26.99 L 163.41 -26.99 L 163.41 -29.8 L 193.17 -29.8 Z M 167.78 -21.92 L 169.73 -23.79 Q 171.01 -22.93 172.46 -21.9 Q 173.9 -20.86 175.3 -19.83 Q 176.71 -18.8 177.96 -17.8 Q 179.2 -16.81 180.06 -15.99 L 180.06 -15.99 L 178 -13.77 Q 177.18 -14.59 175.97 -15.62 Q 174.76 -16.65 173.37 -17.75 Q 171.99 -18.84 170.53 -19.91 Q 169.06 -20.98 167.78 -21.92 L 167.78 -21.92 Z M 186.03 -12.99 L 186.58 -10.26 Q 183.57 -9.2 180.49 -8.13 Q 177.41 -7.06 174.45 -6.04 Q 171.48 -5.03 168.77 -4.09 Q 166.06 -3.16 163.84 -2.38 L 163.84 -2.38 L 162.79 -5.3 Q 164.89 -5.93 167.6 -6.81 Q 170.31 -7.68 173.35 -8.68 Q 176.4 -9.67 179.63 -10.78 Q 182.87 -11.89 186.03 -12.99 L 186.03 -12.99 Z" stroke-linecap="round" />
</g>
</g>
</g>
</svg>